<svg xmlns="http://www.w3.org/2000/svg" width="16.12" height="12.407" viewBox="0 0 16.12 12.407">
  <g id="ico_mail" transform="translate(-649.147 -99.396)">
    <path id="Trazado_54" data-name="Trazado 54" d="M665.109,100.772a.9.9,0,0,1-.063.088l-5.5,6.244a3.111,3.111,0,0,1-4.669,0l-5.572-6.322a1.884,1.884,0,0,0-.154.748v7.158a3.346,3.346,0,0,0,3.346,3.346h9.428a3.345,3.345,0,0,0,3.345-3.346v-7.158A1.893,1.893,0,0,0,665.109,100.772Z" transform="translate(0 -0.232)" fill="#fff"/>
    <path id="Trazado_55" data-name="Trazado 55" d="M656.411,105.767a1.44,1.44,0,0,0,2.159,0l5.5-6.245a.7.7,0,0,1,.064-.059,1.9,1.9,0,0,0-.49-.066H651.333a1.908,1.908,0,0,0-.48.064Z" transform="translate(-0.288)" fill="#fff"/>
  </g>
</svg>
