<svg xmlns="http://www.w3.org/2000/svg" width="358.297" height="64.408" viewBox="0 0 358.297 64.408">
  <g id="logo" transform="translate(-374.52 -82.76)">
    <path id="logo_zigzag" d="M378.856,536.5l10.4,11.025,10.4-11.025,10.4,11.025,10.4-11.025,10.4,11.025,10.4-11.025,10.4,11.025,10.4-11.025,10.408,11.025,10.4-11.025,10.4,11.025,10.4-11.025,10.4,11.025" transform="translate(216.922 -404)" fill="none" stroke="#89d9b1" stroke-width="5"/>
    <path id="Trazado_79" data-name="Trazado 79" d="M27.88-18.96c-.76-6.6-6.04-10.28-12.32-10.28-8.84,0-14.04,6.6-14.04,15.08C1.52-5.92,6.72.68,15.56.68c7,0,11.92-4.56,12.56-11.68H22.04c-.48,3.76-2.64,6.4-6.48,6.4C9.92-4.6,7.8-9.4,7.8-14.16c0-5,2.12-9.8,7.76-9.8a6.171,6.171,0,0,1,6.24,5ZM45.4-7.2c0,1.88-1.84,4.68-6.32,4.68-2.08,0-4-.8-4-3.04,0-2.52,1.92-3.32,4.16-3.72,2.28-.4,4.84-.44,6.16-1.4Zm5.52,4.48a2.919,2.919,0,0,1-1.04.2c-1.08,0-1.08-.72-1.08-2.32V-15.48c0-4.84-4.04-5.68-7.76-5.68-4.6,0-8.56,1.8-8.76,6.92h3.4c.16-3.04,2.28-3.92,5.16-3.92,2.16,0,4.6.48,4.6,3.44,0,2.56-3.2,2.32-6.96,3.04-3.52.68-7,1.68-7,6.36,0,4.12,3.08,5.8,6.84,5.8a9.176,9.176,0,0,0,7.28-3.2c0,2.24,1.12,3.2,2.88,3.2a4.586,4.586,0,0,0,2.44-.56ZM54.48,0h3.4V-12.88a5.578,5.578,0,0,1,5.52-5.28c3.04,0,3.88,1.92,3.88,4.6V0h3.4V-12.88a5.009,5.009,0,0,1,5.4-5.28c3.32,0,4,2.04,4,4.6V0h3.4V-15.16c0-4.28-2.76-6-6.88-6a7.652,7.652,0,0,0-6.48,3.52c-.84-2.52-3.16-3.52-5.68-3.52a7.623,7.623,0,0,0-6.68,3.52h-.08v-3.04h-3.2Zm50.64-10.52c0,4.04-1.56,8-6.2,8-4.68,0-6.52-3.76-6.52-7.84,0-3.88,1.76-7.8,6.32-7.8C103.12-18.16,105.12-14.4,105.12-10.52Zm-16,18.44h3.4V-2.76h.08C94.12-.32,97.16.48,99.28.48c6.32,0,9.44-4.92,9.44-10.76s-3.16-10.88-9.52-10.88c-2.84,0-5.48,1-6.6,3.28h-.08v-2.8h-3.4Zm41.12-28.6h-3.4V-9c0,3.72-2,6.48-6.12,6.48a3.9,3.9,0,0,1-4.2-4.16v-14h-3.4v13.6c0,4.44,1.68,7.56,7.12,7.56a7.2,7.2,0,0,0,6.72-3.76h.08V0h3.2Zm4.2,14.16c.2,5.12,4.12,7,8.76,7,4.2,0,8.8-1.6,8.8-6.52,0-4-3.36-5.12-6.76-5.88-3.16-.76-6.76-1.16-6.76-3.6,0-2.08,2.36-2.64,4.4-2.64,2.24,0,4.56.84,4.8,3.48h3.4c-.28-5.04-3.92-6.48-8.48-6.48-3.6,0-7.72,1.72-7.72,5.88,0,3.96,3.4,5.08,6.76,5.84,3.4.76,6.76,1.2,6.76,3.84,0,2.6-2.88,3.08-5,3.08-2.8,0-5.44-.96-5.56-4Zm51.72-22.04h-3.4v10.64h-.08c-1.52-2.44-4.56-3.24-6.68-3.24-6.32,0-9.44,4.92-9.44,10.76S169.72.48,176.08.48c2.84,0,5.48-1,6.6-3.28h.08V0h3.4Zm-16,18.4c0-4.04,1.56-8,6.2-8,4.68,0,6.52,3.76,6.52,7.84,0,3.88-1.76,7.8-6.32,7.8C172.16-2.52,170.16-6.28,170.16-10.16Zm35.92,3.6c-.6,2.68-2.56,4.04-5.36,4.04-4.52,0-6.56-3.2-6.44-6.8h15.48c.2-5-2.04-11.84-9.36-11.84-5.64,0-9.72,4.56-9.72,10.76C190.88-4.08,194,.48,200.6.48c4.64,0,7.92-2.48,8.84-7.04Zm-11.8-5.76c.24-3.16,2.36-5.84,5.92-5.84a5.95,5.95,0,0,1,5.96,5.84ZM225.4,0h3.4V-28.56h-3.4Zm23.36-6.56c-.6,2.68-2.56,4.04-5.36,4.04-4.52,0-6.56-3.2-6.44-6.8h15.48c.2-5-2.04-11.84-9.36-11.84-5.64,0-9.72,4.56-9.72,10.76.2,6.32,3.32,10.88,9.92,10.88,4.64,0,7.92-2.48,8.84-7.04Zm-11.8-5.76c.24-3.16,2.36-5.84,5.92-5.84a5.95,5.95,0,0,1,5.96,5.84Zm18.08,5.8c.2,5.12,4.12,7,8.76,7,4.2,0,8.8-1.6,8.8-6.52,0-4-3.36-5.12-6.76-5.88-3.16-.76-6.76-1.16-6.76-3.6,0-2.08,2.36-2.64,4.4-2.64,2.24,0,4.56.84,4.8,3.48h3.4c-.28-5.04-3.92-6.48-8.48-6.48-3.6,0-7.72,1.72-7.72,5.88,0,3.96,3.4,5.08,6.76,5.84,3.4.76,6.76,1.2,6.76,3.84,0,2.6-2.88,3.08-5,3.08-2.8,0-5.44-.96-5.56-4ZM285.44,0h6.36l2.24-6.36h10.68L306.88,0h6.52L302.72-28.56h-6.44ZM299.4-21.52h.08l3.6,10.48h-7.4ZM315.96,0h3.4V-9.2c0-5.24,2-8.36,7.48-8.36v-3.6c-3.68-.12-5.96,1.52-7.6,4.84h-.08v-4.36h-3.2Zm18.56-26.88h-3.4v6.2H327.6v3h3.52V-4.52c0,3.8,1.4,4.52,4.92,4.52h2.6V-3h-1.56c-2.12,0-2.56-.28-2.56-1.84V-17.68h4.12v-3h-4.12Zm6.96,20.36c.2,5.12,4.12,7,8.76,7,4.2,0,8.8-1.6,8.8-6.52,0-4-3.36-5.12-6.76-5.88-3.16-.76-6.76-1.16-6.76-3.6,0-2.08,2.36-2.64,4.4-2.64,2.24,0,4.56.84,4.8,3.48h3.4c-.28-5.04-3.92-6.48-8.48-6.48-3.6,0-7.72,1.72-7.72,5.88,0,3.96,3.4,5.08,6.76,5.84,3.4.76,6.76,1.2,6.76,3.84,0,2.6-2.88,3.08-5,3.08-2.8,0-5.44-.96-5.56-4Z" transform="translate(373 112)" fill="#2e2e2e"/>
  </g>
</svg>
