<svg xmlns="http://www.w3.org/2000/svg" width="215.179" height="37.786" viewBox="0 0 215.179 37.786">
  <g id="logo_footer" transform="translate(-492.912 -436.456)">
    <path id="logo_footer_zigzag" d="M378.856,536.5l6.186,6.556,6.185-6.556,6.184,6.556L403.6,536.5l6.184,6.556,6.185-6.556,6.186,6.556,6.188-6.556,6.189,6.556,6.187-6.556,6.186,6.556,6.185-6.556,6.185,6.556" transform="translate(247.729 -71)" fill="none" stroke="#a3d4bb" stroke-width="3"/>
    <path id="Trazado_80" data-name="Trazado 80" d="M16.728-11.376c-.456-3.96-3.624-6.168-7.392-6.168-5.3,0-8.424,3.96-8.424,9.048,0,4.944,3.12,8.9,8.424,8.9A7.237,7.237,0,0,0,16.872-6.6H13.224c-.288,2.256-1.584,3.84-3.888,3.84C5.952-2.76,4.68-5.64,4.68-8.5c0-3,1.272-5.88,4.656-5.88a3.7,3.7,0,0,1,3.744,3ZM27.24-4.32c0,1.128-1.1,2.808-3.792,2.808-1.248,0-2.4-.48-2.4-1.824,0-1.512,1.152-1.992,2.5-2.232,1.368-.24,2.9-.264,3.7-.84Zm3.312,2.688a1.751,1.751,0,0,1-.624.12c-.648,0-.648-.432-.648-1.392V-9.288c0-2.9-2.424-3.408-4.656-3.408-2.76,0-5.136,1.08-5.256,4.152h2.04c.1-1.824,1.368-2.352,3.1-2.352,1.3,0,2.76.288,2.76,2.064,0,1.536-1.92,1.392-4.176,1.824-2.112.408-4.2,1.008-4.2,3.816,0,2.472,1.848,3.48,4.1,3.48a5.506,5.506,0,0,0,4.368-1.92c0,1.344.672,1.92,1.728,1.92a2.751,2.751,0,0,0,1.464-.336ZM32.688,0h2.04V-7.728A3.347,3.347,0,0,1,38.04-10.9c1.824,0,2.328,1.152,2.328,2.76V0h2.04V-7.728a3.005,3.005,0,0,1,3.24-3.168c1.992,0,2.4,1.224,2.4,2.76V0h2.04V-9.1c0-2.568-1.656-3.6-4.128-3.6a4.591,4.591,0,0,0-3.888,2.112A3.291,3.291,0,0,0,38.664-12.7a4.574,4.574,0,0,0-4.008,2.112h-.048v-1.824h-1.92ZM63.072-6.312c0,2.424-.936,4.8-3.72,4.8-2.808,0-3.912-2.256-3.912-4.7,0-2.328,1.056-4.68,3.792-4.68C61.872-10.9,63.072-8.64,63.072-6.312Zm-9.6,11.064h2.04V-1.656h.048A4.752,4.752,0,0,0,59.568.288c3.792,0,5.664-2.952,5.664-6.456S63.336-12.7,59.52-12.7a4.176,4.176,0,0,0-3.96,1.968h-.048v-1.68h-2.04Zm24.672-17.16H76.1V-5.4c0,2.232-1.2,3.888-3.672,3.888a2.338,2.338,0,0,1-2.52-2.5v-8.4h-2.04v8.16c0,2.664,1.008,4.536,4.272,4.536a4.319,4.319,0,0,0,4.032-2.256h.048V0h1.92Zm2.52,8.5c.12,3.072,2.472,4.2,5.256,4.2,2.52,0,5.28-.96,5.28-3.912,0-2.4-2.016-3.072-4.056-3.528-1.9-.456-4.056-.7-4.056-2.16,0-1.248,1.416-1.584,2.64-1.584,1.344,0,2.736.5,2.88,2.088h2.04C90.48-11.832,88.3-12.7,85.56-12.7c-2.16,0-4.632,1.032-4.632,3.528,0,2.376,2.04,3.048,4.056,3.5,2.04.456,4.056.72,4.056,2.3,0,1.56-1.728,1.848-3,1.848-1.68,0-3.264-.576-3.336-2.4ZM111.7-17.136h-2.04v6.384h-.048A4.752,4.752,0,0,0,105.6-12.7c-3.792,0-5.664,2.952-5.664,6.456s1.9,6.528,5.712,6.528a4.176,4.176,0,0,0,3.96-1.968h.048V0h2.04ZM102.1-6.1c0-2.424.936-4.8,3.72-4.8,2.808,0,3.912,2.256,3.912,4.7,0,2.328-1.056,4.68-3.792,4.68C103.3-1.512,102.1-3.768,102.1-6.1Zm21.552,2.16a2.99,2.99,0,0,1-3.216,2.424,3.655,3.655,0,0,1-3.864-4.08h9.288c.12-3-1.224-7.1-5.616-7.1-3.384,0-5.832,2.736-5.832,6.456.12,3.792,1.992,6.528,5.952,6.528a5,5,0,0,0,5.3-4.224Zm-7.08-3.456a3.534,3.534,0,0,1,3.552-3.5,3.57,3.57,0,0,1,3.576,3.5ZM135.24,0h2.04V-17.136h-2.04Zm14.016-3.936a2.99,2.99,0,0,1-3.216,2.424,3.655,3.655,0,0,1-3.864-4.08h9.288c.12-3-1.224-7.1-5.616-7.1-3.384,0-5.832,2.736-5.832,6.456.12,3.792,1.992,6.528,5.952,6.528a5,5,0,0,0,5.3-4.224Zm-7.08-3.456a3.534,3.534,0,0,1,3.552-3.5,3.57,3.57,0,0,1,3.576,3.5Zm10.848,3.48c.12,3.072,2.472,4.2,5.256,4.2,2.52,0,5.28-.96,5.28-3.912,0-2.4-2.016-3.072-4.056-3.528-1.9-.456-4.056-.7-4.056-2.16,0-1.248,1.416-1.584,2.64-1.584,1.344,0,2.736.5,2.88,2.088h2.04c-.168-3.024-2.352-3.888-5.088-3.888-2.16,0-4.632,1.032-4.632,3.528,0,2.376,2.04,3.048,4.056,3.5,2.04.456,4.056.72,4.056,2.3,0,1.56-1.728,1.848-3,1.848-1.68,0-3.264-.576-3.336-2.4ZM171.264,0h3.816l1.344-3.816h6.408L184.128,0h3.912l-6.408-17.136h-3.864Zm8.376-12.912h.048l2.16,6.288h-4.44ZM189.576,0h2.04V-5.52c0-3.144,1.2-5.016,4.488-5.016V-12.7a4.511,4.511,0,0,0-4.56,2.9H191.5v-2.616h-1.92Zm11.136-16.128h-2.04v3.72H196.56v1.8h2.112v7.9c0,2.28.84,2.712,2.952,2.712h1.56V-1.8h-.936c-1.272,0-1.536-.168-1.536-1.1v-7.7h2.472v-1.8h-2.472Zm4.176,12.216c.12,3.072,2.472,4.2,5.256,4.2,2.52,0,5.28-.96,5.28-3.912,0-2.4-2.016-3.072-4.056-3.528-1.9-.456-4.056-.7-4.056-2.16,0-1.248,1.416-1.584,2.64-1.584,1.344,0,2.736.5,2.88,2.088h2.04c-.168-3.024-2.352-3.888-5.088-3.888-2.16,0-4.632,1.032-4.632,3.528,0,2.376,2.04,3.048,4.056,3.5,2.04.456,4.056.72,4.056,2.3,0,1.56-1.728,1.848-3,1.848-1.68,0-3.264-.576-3.336-2.4Z" transform="translate(492 454)" fill="#fff"/>
  </g>
</svg>
