<svg xmlns="http://www.w3.org/2000/svg" width="19.605" height="354.994" viewBox="0 0 19.605 354.994">
  <path id="zigzag_vertical" d="M241.5,536.5l11.626,12.317L264.749,536.5l11.62,12.317L287.988,536.5,299.6,548.817,311.221,536.5l11.616,12.317L334.452,536.5l11.617,12.317L357.688,536.5l11.621,12.317L380.933,536.5l11.627,12.317L404.184,536.5,415.8,548.817,427.424,536.5l11.618,12.317L450.66,536.5l11.618,12.317L473.9,536.5l11.622,12.317L497.145,536.5l11.628,12.317L520.4,536.5l11.622,12.317,11.62-12.317,12.317,12.317L568.273,536.5l12.317,12.317L592.908,536.5" transform="translate(552.461 -239.682) rotate(90)" fill="none" stroke="#a3d4bb" stroke-width="5"/>
</svg>
